<svg height="512" viewBox="0 0 152 152" width="512" xmlns="http://www.w3.org/2000/svg" xmlns:xlink="http://www.w3.org/1999/xlink"><linearGradient id="a" gradientUnits="userSpaceOnUse" x1="46.42" x2="47.01" y1="51.38" y2="51.97"><stop offset="0" stop-color="#0d47a1"/><stop offset="1" stop-color="#0d47a1" stop-opacity="0"/></linearGradient><linearGradient id="b" x1="82.89" x2="83.44" xlink:href="#a" y1="49.54" y2="50.09"/><linearGradient id="c" x1="60.25" x2="65.8" xlink:href="#a" y1="51.47" y2="57.02"/><linearGradient id="d" x1="44.71" x2="64.61" xlink:href="#a" y1="54.27" y2="74.17"/><linearGradient id="e" x1="82.81" x2="82.88" xlink:href="#a" y1="49.49" y2="49.55"/><linearGradient id="f" x1="77.81" x2="92.66" xlink:href="#a" y1="55.72" y2="70.57"/><linearGradient id="g" x1="80.48" x2="156.19" xlink:href="#a" y1="65.08" y2="140.78"/><g data-name="Layer 2"><g data-name="Color Icon"><g data-name="22.VK"><path d="M140 0H12A12 12 0 000 12v128a12 12 0 0012 12h128a12 12 0 0012-12V12a12 12 0 00-12-12z" fill="#4c75a3"/><path d="M47 52l-.59-.59A3.29 3.29 0 0147 52z" fill="url(#a)" fill-rule="evenodd"/><path d="M83.43 50.1l-.55-.55a2.61 2.61 0 01.55.55z" fill="url(#b)" fill-rule="evenodd"/><path d="M65.24 57.58L59.69 52a6.61 6.61 0 014.36 2.19 8.24 8.24 0 011.19 3.39z" fill="url(#c)"/><path d="M52.9 64a94.08 94.08 0 01-5.27-11 4.74 4.74 0 00-.63-1l18.35 18.33c-.28 2.32-.84 4.31-1.87 4.88-1.99 1.08-4.72-1.13-10.58-11.21z" fill="url(#d)"/><path d="M82.88 49.55l-.07-.06z" fill="url(#e)"/><path d="M83.43 50.1l13.32 13.32-.39.66c-6.58 11.16-9.2 11.75-10.28 11.06-2.5-1.61-1.87-6.49-1.87-10 0-8.25.97-12.84-.78-15.04z" fill="url(#f)"/><path d="M152 79.11V140a12 12 0 01-12 12h-30.07L51.74 93.82c11.11 10.67 23.21 10 23.21 10h5.86a5 5 0 002.68-1.17 4.34 4.34 0 00.81-2.65s-.12-7.87 3.54-9 8.22 7.6 13.13 11c3.7 2.55 6.52 2 6.52 2l13.11-.18s6.86-.43 3.61-5.82c-.27-.44-1.9-4-9.75-11.28-8.22-7.63-7.12-6.39 2.78-19.59 6-8 8.44-12.94 7.69-15z" fill="url(#g)"/><path d="M75 103.77h5.86a5 5 0 002.68-1.17 4.34 4.34 0 00.76-2.6s-.12-7.87 3.54-9 8.22 7.6 13.13 11c3.7 2.55 6.52 2 6.52 2l13.11-.18s6.86-.43 3.61-5.82c-.27-.44-1.9-4-9.75-11.28-8.22-7.63-7.12-6.39 2.78-19.59 6-8 8.44-12.94 7.69-15s-5.15-1.48-5.15-1.48l-14.76.1a3.38 3.38 0 00-1.91.33 4.18 4.18 0 00-1.3 1.59 85.71 85.71 0 01-5.45 11.5c-6.58 11.16-9.2 11.75-10.28 11.06-2.5-1.61-1.87-6.49-1.87-10 0-10.82 1.64-15.32-3.2-16.49a24.94 24.94 0 00-6.89-.74c-5.26 0-9.72 0-12.24 1.26-1.68.82-3 2.65-2.19 2.76a6.61 6.61 0 014.36 2.19c1.51 2.05 1.46 6.68 1.46 6.68s.86 12.73-2 14.31c-2 1.08-4.72-1.13-10.58-11.26A94.08 94.08 0 0147.63 53a4.38 4.38 0 00-1.22-1.64 4.33 4.33 0 00-.75-.44 5.65 5.65 0 00-2.4-.47l-13.14.09s-2.11 0-2.88 1-.06 2.5-.06 2.5 11 25.69 23.42 38.64C62 104.54 75 103.77 75 103.77z" fill="#fff" fill-rule="evenodd"/></g></g></g></svg>